<svg id="Alert" xmlns="http://www.w3.org/2000/svg" width="24.406" height="24.531" viewBox="0 0 24.406 24.531">
  <rect id="Rectangle_479" data-name="Rectangle 479" width="24" height="24" transform="translate(0.266 0.266)" fill="none"/>
  <path id="Path_1" data-name="Path 1" d="M22.965,21.465H15.3a3.066,3.066,0,0,1-6.133,0H1.5A1.473,1.473,0,0,1,.12,20.392a1.637,1.637,0,0,1,.46-1.687A6.172,6.172,0,0,0,3.033,13.8V9.2a9.2,9.2,0,0,1,18.4,0v4.6a6.172,6.172,0,0,0,2.453,4.906,1.452,1.452,0,0,1,.46,1.687A1.473,1.473,0,0,1,22.965,21.465Z" transform="translate(-0.062)" fill="#19af94"/>
</svg>
