<svg xmlns="http://www.w3.org/2000/svg" width="33" height="21" viewBox="0 0 33 21">
  <g id="Group_31045" data-name="Group 31045" transform="translate(-1173 -54)">
    <path id="Chat" d="M5,8A.945.945,0,0,0,6,9h4a1,1,0,0,0,1-1,.945.945,0,0,0-1-1H6A1,1,0,0,0,5,8ZM0,5A4.951,4.951,0,0,1,5,0h6a4.951,4.951,0,0,1,5,5V15a.945.945,0,0,1-1,1H5a4.951,4.951,0,0,1-5-5Z" transform="translate(1173 54)" fill="#19af94"/>
    <path id="Chat-2" data-name="Chat" d="M11,8a.945.945,0,0,1-1,1H6A1,1,0,0,1,5,8,.945.945,0,0,1,6,7h4A1,1,0,0,1,11,8Zm5-3a4.951,4.951,0,0,0-5-5H5A4.951,4.951,0,0,0,0,5V15a.945.945,0,0,0,1,1H11a4.951,4.951,0,0,0,5-5Z" transform="translate(1190 59)" fill="#19af94"/>
  </g>
</svg>
