<svg xmlns="http://www.w3.org/2000/svg" width="22.511" height="24.531" viewBox="0 0 22.511 24.531">
  <path id="home_FILL1_wght700_GRAD0_opsz48" d="M138.062,232.531A3.071,3.071,0,0,1,135,229.469V217.187a3.022,3.022,0,0,1,.322-1.366,2.93,2.93,0,0,1,.916-1.077l8.144-6.125a3.826,3.826,0,0,1,.91-.456,2.94,2.94,0,0,1,.956-.163,2.879,2.879,0,0,1,.949.163,3.793,3.793,0,0,1,.9.456l8.144,6.125a3.231,3.231,0,0,1,.931,1.085,2.863,2.863,0,0,1,.34,1.358v12.282a2.933,2.933,0,0,1-.909,2.163,3,3,0,0,1-2.186.9h-5.375V222.4h-5.6v10.132Z" transform="translate(-135 -208)" fill="#19af94"/>
</svg>
