<svg id="Logo" xmlns="http://www.w3.org/2000/svg" xmlns:xlink="http://www.w3.org/1999/xlink" width="41" height="65.414" viewBox="0 0 41 65.414">
  <defs>
    <clipPath id="clip-path">
      <rect id="Rectangle_3387" data-name="Rectangle 3387" width="41" height="65.414" fill="#fff"/>
    </clipPath>
  </defs>
  <g id="Group_31777" data-name="Group 31777" clip-path="url(#clip-path)">
    <path id="Path_50952" data-name="Path 50952" d="M22.623,21.727H20.037q-.165.4-.281.7t-.189.528a3.09,3.09,0,0,0-.1.378,1.437,1.437,0,0,0-.029.252.4.4,0,0,0,.174.373,1.219,1.219,0,0,0,.581.1v.368H17.838v-.368a2.389,2.389,0,0,0,.383-.077.949.949,0,0,0,.281-.136.852.852,0,0,0,.213-.228,2.258,2.258,0,0,0,.179-.344l2.518-6.305h.416l2.2,5.463q.223.542.387.867a2.123,2.123,0,0,0,.32.489.717.717,0,0,0,.334.213,1.664,1.664,0,0,0,.431.049v.378H22.342v-.378a1.764,1.764,0,0,0,.707-.1.331.331,0,0,0,.194-.32,1.554,1.554,0,0,0-.01-.179,1.475,1.475,0,0,0-.034-.179q-.024-.1-.068-.218c-.029-.081-.066-.176-.111-.286Zm-2.392-.484h2.208l-1.075-2.857Z" transform="translate(-15.246 -14.505)" fill="#fff"/>
    <path id="Path_50953" data-name="Path 50953" d="M78.863,34.249v-.4q0-1.181-1.007-1.182a1.167,1.167,0,0,0-.281.029.457.457,0,0,0-.194.1.624.624,0,0,0-.141.194,2.139,2.139,0,0,0-.121.31,1.009,1.009,0,0,1-.208.373.493.493,0,0,1-.78-.392.791.791,0,0,1,.494-.722,3.106,3.106,0,0,1,1.4-.257,2.144,2.144,0,0,1,1.375.344,1.456,1.456,0,0,1,.407,1.167v2.17q0,1.1.436,1.1a1,1,0,0,0,.262-.034.365.365,0,0,0,.213-.179l.135.232a.9.9,0,0,1-.426.373,1.473,1.473,0,0,1-.649.15.75.75,0,0,1-.634-.271,1.232,1.232,0,0,1-.208-.765h-.049a1.932,1.932,0,0,1-.7.751,1.84,1.84,0,0,1-.988.276,1.392,1.392,0,0,1-.959-.31,1.059,1.059,0,0,1-.349-.833,1.225,1.225,0,0,1,.082-.445,1.245,1.245,0,0,1,.266-.407,2.511,2.511,0,0,1,.484-.383,5.911,5.911,0,0,1,.736-.383Zm0,.416a8.693,8.693,0,0,0-.935.416,3.274,3.274,0,0,0-.615.407,1.378,1.378,0,0,0-.334.407.921.921,0,0,0-.1.416.69.69,0,0,0,.213.523.779.779,0,0,0,.562.2.923.923,0,0,0,.47-.126,1.283,1.283,0,0,0,.383-.344,1.746,1.746,0,0,0,.262-.513,2,2,0,0,0,.1-.625Z" transform="translate(-64.871 -27.609)" fill="#fff"/>
    <path id="Path_50954" data-name="Path 50954" d="M115.961,27.312v-.358a3.757,3.757,0,0,0,.8-.6,2.038,2.038,0,0,0,.446-.717h.281v1.22h1.3v.455h-1.3v2.944a4.019,4.019,0,0,0,.034.571,1.106,1.106,0,0,0,.111.373.446.446,0,0,0,.2.2.765.765,0,0,0,.32.058.788.788,0,0,0,.412-.1,1.14,1.14,0,0,0,.334-.344l.242.184a1.03,1.03,0,0,1-.47.547,1.662,1.662,0,0,1-.828.189,1.4,1.4,0,0,1-.973-.305,1.127,1.127,0,0,1-.334-.876V27.312Z" transform="translate(-99.112 -21.911)" fill="#fff"/>
    <path id="Path_50955" data-name="Path 50955" d="M145.093,19.47q0,.4.019.63a.742.742,0,0,0,.1.354.388.388,0,0,0,.237.16,2.643,2.643,0,0,0,.436.058v.339H143.31v-.339a2.908,2.908,0,0,0,.446-.058.422.422,0,0,0,.252-.155.679.679,0,0,0,.111-.334,5.617,5.617,0,0,0,.024-.586V15.48q0-.571-.015-.91a3.173,3.173,0,0,0-.053-.513.541.541,0,0,0-.063-.189.308.308,0,0,0-.131-.116.748.748,0,0,0-.232-.063,2.772,2.772,0,0,0-.358-.019v-.329l1.782-.368v3.69h.039a1.728,1.728,0,0,1,.363-.354,2.724,2.724,0,0,1,.47-.276,2.916,2.916,0,0,1,.528-.184,2.258,2.258,0,0,1,.537-.068,2.112,2.112,0,0,1,.818.155,1.381,1.381,0,0,1,.576.417,1.508,1.508,0,0,1,.242.586,4.932,4.932,0,0,1,.077.983v1.55q0,.4.019.625a.765.765,0,0,0,.1.354.382.382,0,0,0,.237.165,2.645,2.645,0,0,0,.436.058v.339h-2.567v-.339a2.047,2.047,0,0,0,.436-.053.421.421,0,0,0,.247-.16.715.715,0,0,0,.106-.334,5.569,5.569,0,0,0,.024-.586v-1.22a3.439,3.439,0,0,0-.252-1.545.884.884,0,0,0-.843-.46,1.533,1.533,0,0,0-.828.232,1.624,1.624,0,0,0-.586.639q-.049.107-.082.2a1.139,1.139,0,0,0-.053.208,2,2,0,0,0-.024.266q0,.15,0,.373Z" transform="translate(-122.471 -11.086)" fill="#fff"/>
    <path id="Path_50956" data-name="Path 50956" d="M196.85,34.249v-.4q0-1.181-1.007-1.182a1.169,1.169,0,0,0-.281.029.458.458,0,0,0-.194.1.626.626,0,0,0-.141.194,2.155,2.155,0,0,0-.121.31,1.009,1.009,0,0,1-.208.373.493.493,0,0,1-.78-.392.791.791,0,0,1,.494-.722,3.106,3.106,0,0,1,1.4-.257,2.145,2.145,0,0,1,1.375.344,1.456,1.456,0,0,1,.407,1.167v2.17q0,1.1.436,1.1a1,1,0,0,0,.262-.034.365.365,0,0,0,.213-.179l.136.232a.9.9,0,0,1-.426.373,1.473,1.473,0,0,1-.649.15.75.75,0,0,1-.634-.271,1.232,1.232,0,0,1-.208-.765h-.048a1.931,1.931,0,0,1-.7.751,1.839,1.839,0,0,1-.988.276,1.392,1.392,0,0,1-.959-.31,1.059,1.059,0,0,1-.349-.833,1.222,1.222,0,0,1,.082-.445,1.245,1.245,0,0,1,.266-.407,2.511,2.511,0,0,1,.484-.383,5.908,5.908,0,0,1,.736-.383Zm0,.416a8.678,8.678,0,0,0-.935.416,3.28,3.28,0,0,0-.615.407,1.378,1.378,0,0,0-.334.407.922.922,0,0,0-.1.416.691.691,0,0,0,.213.523.78.78,0,0,0,.562.2.923.923,0,0,0,.47-.126,1.283,1.283,0,0,0,.383-.344,1.742,1.742,0,0,0,.262-.513,2,2,0,0,0,.1-.625Z" transform="translate(-165.715 -27.609)" fill="#fff"/>
    <path id="Path_50957" data-name="Path 50957" d="M235.483,35.993q0,.4.019.63a.74.74,0,0,0,.1.354.388.388,0,0,0,.237.16,2.643,2.643,0,0,0,.436.058v.339H233.7v-.339a2.092,2.092,0,0,0,.446-.053.444.444,0,0,0,.252-.16.68.68,0,0,0,.111-.334,5.61,5.61,0,0,0,.024-.586V34.928q0-.658-.015-1.027a1.479,1.479,0,0,0-.1-.542.348.348,0,0,0-.257-.208,2.687,2.687,0,0,0-.484-.034v-.339l1.695-.368.136,1.2h.039a2.437,2.437,0,0,1,.315-.533,2.257,2.257,0,0,1,.412-.412,1.99,1.99,0,0,1,.465-.266,1.319,1.319,0,0,1,.494-.1.738.738,0,0,1,.489.15.5.5,0,0,1,.179.4.463.463,0,0,1-.145.363.6.6,0,0,1-.416.131.769.769,0,0,1-.262-.039,1.5,1.5,0,0,1-.189-.082l-.155-.082a.336.336,0,0,0-.16-.039.707.707,0,0,0-.523.334,2.439,2.439,0,0,0-.407.848,4.433,4.433,0,0,0-.121.634,6.061,6.061,0,0,0-.044.741Z" transform="translate(-199.729 -27.609)" fill="#fff"/>
    <path id="Path_50958" data-name="Path 50958" d="M232.32,104.355H236.3v34.474l-3.977-.008" transform="translate(-198.565 -89.192)" fill="#fff"/>
    <path id="Path_50959" data-name="Path 50959" d="M89.308,104.355v3.977H68.1v-3.977" transform="translate(-58.204 -89.192)" fill="#fff"/>
    <path id="Path_50960" data-name="Path 50960" d="M89.308,149.972,68.1,163.228v2.651l21.21-13.256Z" transform="translate(-58.204 -128.182)" fill="#fff"/>
    <rect id="Rectangle_3384" data-name="Rectangle 3384" width="2.647" height="2.651" transform="translate(19.174 34.974)" fill="#fff"/>
    <rect id="Rectangle_3385" data-name="Rectangle 3385" width="2.656" height="2.651" transform="translate(21.82 40.276)" fill="#fff"/>
    <rect id="Rectangle_3386" data-name="Rectangle 3386" width="2.651" height="2.651" transform="translate(16.522 40.276)" fill="#fff"/>
    <path id="Path_50961" data-name="Path 50961" d="M125.166,152.381h-.872v-1.668h-.71v-.872h1.146l.436.436Z" transform="translate(-105.628 -128.069)" fill="#fff"/>
    <path id="Path_50962" data-name="Path 50962" d="M26.458,106.355H22.481v34.466H50.319v-9.279H46.342v5.229H26.458Z" transform="translate(-19.214 -90.902)" fill="#fff"/>
    <path id="Path_50963" data-name="Path 50963" d="M87.029,152.964l-.781,0-1.055-2.143.782-.385.667,1.355.668-1.334.78.39Z" transform="translate(-72.815 -128.575)" fill="#fff"/>
    <path id="Path_50964" data-name="Path 50964" d="M105.888,153.007l-.669-1.338L104.555,153l-.781-.388,1.054-2.119h.78l1.06,2.12Z" transform="translate(-88.696 -128.63)" fill="#fff"/>
    <path id="Path_50965" data-name="Path 50965" d="M41,12.039h-.145L0,12.035V0H41ZM.289,11.749l40.42,0V.285H.289Z" fill="#fff"/>
    <path id="Path_50966" data-name="Path 50966" d="M.006,367.338H41v12.041h-41Zm40.709.285H.3v11.472h40.42Z" transform="translate(-0.005 -313.965)" fill="#fff"/>
    <path id="Path_50967" data-name="Path 50967" d="M41,122.775H0V80.868H.144l40.854,0ZM.289,122.484h40.42V81.164l-40.42,0Z" transform="translate(0 -69.118)" fill="#fff"/>
    <path id="Path_50968" data-name="Path 50968" d="M24.8,378.708H21.894l-.509,1.184a1.876,1.876,0,0,0-.188.653.379.379,0,0,0,.163.3,1.426,1.426,0,0,0,.706.169v.2H19.7v-.2a1.275,1.275,0,0,0,.609-.216,3.392,3.392,0,0,0,.625-1.079l2.639-6.176h.194l2.612,6.242a2.847,2.847,0,0,0,.573.977,1.167,1.167,0,0,0,.717.252v.2h-2.96v-.2a1.109,1.109,0,0,0,.606-.149.385.385,0,0,0,.158-.31,2.3,2.3,0,0,0-.221-.769Zm-.155-.409-1.273-3.033L22.066,378.3Z" transform="translate(-16.84 -319.27)" fill="#fff"/>
    <path id="Path_50969" data-name="Path 50969" d="M86.67,390.6h.941l-.57,2.562q-.166.731-.227.9.221,1.018.642,1.018.5,0,.515-.686h.2a2.263,2.263,0,0,1-.235,1.038.649.649,0,0,1-.573.4.477.477,0,0,1-.437-.238,3.8,3.8,0,0,1-.31-.974,1.948,1.948,0,0,1-1.882,1.212,1.685,1.685,0,0,1-1.417-.694,3.246,3.246,0,0,1-.526-1.989,3.061,3.061,0,0,1,.576-1.981,1.73,1.73,0,0,1,1.384-.708,1.2,1.2,0,0,1,.935.4,3.566,3.566,0,0,1,.647,1.317Zm-.487,2.169a5.476,5.476,0,0,0-.581-1.392.916.916,0,0,0-.769-.5q-1.013,0-1.013,2.368,0,2.247.968,2.247.841,0,1.245-1.981Z" transform="translate(-70.762 -333.723)" fill="#fff"/>
    <path id="Path_50970" data-name="Path 50970" d="M181.968,390.6h.941l-.57,2.562q-.166.731-.227.9.221,1.018.642,1.018.5,0,.515-.686h.2a2.262,2.262,0,0,1-.235,1.038.649.649,0,0,1-.573.4.477.477,0,0,1-.437-.238,3.8,3.8,0,0,1-.31-.974,1.948,1.948,0,0,1-1.882,1.212,1.685,1.685,0,0,1-1.417-.694,3.245,3.245,0,0,1-.526-1.989,3.061,3.061,0,0,1,.576-1.981,1.73,1.73,0,0,1,1.383-.708,1.2,1.2,0,0,1,.935.4,3.566,3.566,0,0,1,.647,1.317Zm-.487,2.169a5.476,5.476,0,0,0-.581-1.392.916.916,0,0,0-.769-.5q-1.013,0-1.013,2.368,0,2.247.968,2.247.841,0,1.245-1.981Z" transform="translate(-152.213 -333.723)" fill="#fff"/>
    <path id="Path_50971" data-name="Path 50971" d="M227.864,397.182h-.979a6.519,6.519,0,0,0,.212-1.926v-3.121a2.391,2.391,0,0,1,.773-1.959,2.623,2.623,0,0,1,1.707-.636,2.112,2.112,0,0,1,1.632.672,2.5,2.5,0,0,1,.619,1.763,3.028,3.028,0,0,1-.768,2.064,2.285,2.285,0,0,1-1.752.874,2.213,2.213,0,0,1-1.266-.409v.725a9.153,9.153,0,0,1-.177,1.954m.177-3.962a1.35,1.35,0,0,0,.367,1.021,1.294,1.294,0,0,0,.933.351,1.386,1.386,0,0,0,1.12-.556,2.266,2.266,0,0,0,.45-1.469,2.623,2.623,0,0,0-.613-1.832,1.815,1.815,0,0,0-1.363-.675.761.761,0,0,0-.7.307,1.959,1.959,0,0,0-.192,1Z" transform="translate(-193.919 -332.941)" fill="#fff"/>
    <path id="Path_50972" data-name="Path 50972" d="M144.552,382.08v8.2s-.4,1.125.334,1.125c.819,0,.433-1.119.433-1.119v-8.2Z" transform="translate(-123.457 -326.565)" fill="#fff"/>
    <path id="Path_50973" data-name="Path 50973" d="M131.815,394.123h-.6a2.462,2.462,0,1,0,0,4.925h.6a2.462,2.462,0,1,0,0-4.925m1.556,3.18a1.483,1.483,0,0,1-1.479,1.479h-.754a1.483,1.483,0,0,1-1.479-1.479v-1.435a1.483,1.483,0,0,1,1.479-1.479h.754a1.483,1.483,0,0,1,1.479,1.479Z" transform="translate(-110.045 -336.858)" fill="#fff"/>
  </g>
</svg>
